<svg width="21" height="21" viewBox="0 0 21 21" fill="none" xmlns="http://www.w3.org/2000/svg">
<g id="BookOpen-d">
<g id="Group">
<g id="Group_2">
<path id="Vector" d="M13.3658 17.7046H5.83007C4.88127 17.7046 4.09668 16.92 4.09668 15.9712V4.96874C4.09668 4.01994 4.88127 3.23535 5.83007 3.23535H13.3475C14.2963 3.23535 15.0809 4.01994 15.0809 4.96874V15.9712C15.0992 16.9383 14.3146 17.7046 13.3658 17.7046ZM5.83007 4.14766C5.37392 4.14766 5.00899 4.51259 5.00899 4.96874V15.9712C5.00899 16.4274 5.37392 16.7923 5.83007 16.7923H13.3475C13.8037 16.7923 14.1686 16.4274 14.1686 15.9712V4.96874C14.1686 4.51259 13.8037 4.14766 13.3475 4.14766H5.83007Z" fill="white"/>
</g>
<g id="Group_3">
<path id="Vector_2" d="M12.4901 7.87008H6.52354C6.26809 7.87008 6.06738 7.66937 6.06738 7.41392C6.06738 7.15847 6.26809 6.95776 6.52354 6.95776H12.4901C12.7455 6.95776 12.9462 7.15847 12.9462 7.41392C12.9462 7.66937 12.7455 7.87008 12.4901 7.87008Z" fill="white"/>
</g>
<g id="Group_4">
<path id="Vector_3" d="M12.4901 10.2419H6.52354C6.26809 10.2419 6.06738 10.0412 6.06738 9.78575C6.06738 9.5303 6.26809 9.32959 6.52354 9.32959H12.4901C12.7455 9.32959 12.9462 9.5303 12.9462 9.78575C12.9462 10.0412 12.7455 10.2419 12.4901 10.2419Z" fill="white"/>
</g>
<g id="Group_5">
<path id="Vector_4" d="M12.4901 12.614H6.52354C6.26809 12.614 6.06738 12.4133 6.06738 12.1578C6.06738 11.9024 6.26809 11.7017 6.52354 11.7017H12.4901C12.7455 11.7017 12.9462 11.9024 12.9462 12.1578C12.9462 12.4133 12.7455 12.614 12.4901 12.614Z" fill="white"/>
</g>
<g id="Group_6">
<g id="Group_7">
<path id="Vector_5" d="M14.9718 11.8475L15.9754 12.8511L13.4391 15.3691L12.4356 14.3655L14.9718 11.8475ZM16.7235 11.5921L16.2855 11.1542C16.1213 10.99 15.8294 10.99 15.6652 11.1542L15.2273 11.5738L16.2308 12.5774L16.7235 12.0847C16.8512 11.9388 16.8512 11.738 16.7235 11.5921ZM11.9247 15.7705C11.9064 15.8435 11.9794 15.9164 12.0707 15.8982L13.1837 15.6245L12.1801 14.621L11.9247 15.7705Z" fill="white"/>
</g>
</g>
</g>
</g>
</svg>
