<svg width="186" height="186" viewBox="0 0 186 186" fill="none" xmlns="http://www.w3.org/2000/svg">
<g id="Group 625522">
<g id="Group 625518" filter="url(#filter0_d_30_2520)">
<rect id="Rectangle 3120" x="62" y="24" width="86.6667" height="86.6667" rx="9.33333" fill="#0F0F0F"/>
</g>
<path id="Path" d="M114.68 59.3195C119.106 63.7454 119.106 70.9213 114.68 75.3472C110.254 79.7732 103.078 79.7732 98.6525 75.3472C94.2265 70.9213 94.2265 63.7454 98.6525 59.3195C103.078 54.8935 110.254 54.8935 114.68 59.3195" stroke="white" stroke-width="3.33333" stroke-linecap="round" stroke-linejoin="round"/>
<path id="Path_2" d="M121.999 51.0998C121.503 51.1025 121.1 51.5052 121.1 52.0012C121.1 52.4972 121.506 52.8998 122.002 52.8998C122.498 52.8998 122.9 52.4972 122.9 52.0012C122.903 51.5025 122.498 51.0998 121.999 51.0998" stroke="white" stroke-width="3.55076" stroke-linecap="round" stroke-linejoin="round"/>
</g>
<defs>
<filter id="filter0_d_30_2520" x="0.666664" y="-1.90735e-06" width="185.333" height="185.333" filterUnits="userSpaceOnUse" color-interpolation-filters="sRGB">
<feFlood flood-opacity="0" result="BackgroundImageFix"/>
<feColorMatrix in="SourceAlpha" type="matrix" values="0 0 0 0 0 0 0 0 0 0 0 0 0 0 0 0 0 0 127 0" result="hardAlpha"/>
<feOffset dx="-12" dy="25.3333"/>
<feGaussianBlur stdDeviation="24.6667"/>
<feComposite in2="hardAlpha" operator="out"/>
<feColorMatrix type="matrix" values="0 0 0 0 0 0 0 0 0 0 0 0 0 0 0 0 0 0 0.07 0"/>
<feBlend mode="normal" in2="BackgroundImageFix" result="effect1_dropShadow_30_2520"/>
<feBlend mode="normal" in="SourceGraphic" in2="effect1_dropShadow_30_2520" result="shape"/>
</filter>
</defs>
</svg>
