<svg width="148" height="56" viewBox="0 0 148 56" fill="none" xmlns="http://www.w3.org/2000/svg">
<g id="Group 1000001833">
<g id="Group 1000001831">
<g id="Group 7694">
<g id="Group">
<path id="Vector" d="M52.7012 35.777V18.4676H55.4571L55.7956 20.184C56.1824 19.6522 56.6949 19.1832 57.3331 18.7819C57.9713 18.3806 58.7933 18.1775 59.8087 18.1775C60.9352 18.1775 61.9457 18.4531 62.8306 18.9994C63.7154 19.5458 64.4164 20.2952 64.9338 21.2477C65.4511 22.2002 65.7074 23.2784 65.7074 24.4872C65.7074 25.696 65.4511 26.7693 64.9338 27.7122C64.4164 28.655 63.7154 29.3947 62.8306 29.9363C61.9457 30.4778 60.9352 30.7437 59.8087 30.7437C58.9045 30.7437 58.1164 30.5745 57.4395 30.236C56.7626 29.8976 56.2162 29.4238 55.7956 28.8097V35.7722H52.7012V35.777ZM59.1559 28.0409C60.1374 28.0409 60.9546 27.7122 61.5976 27.0498C62.2407 26.3874 62.5646 25.5364 62.5646 24.4872C62.5646 23.438 62.2407 22.5774 61.5976 21.9005C60.9546 21.2236 60.1374 20.8851 59.1559 20.8851C58.1744 20.8851 57.338 21.2187 56.6997 21.8908C56.0615 22.5629 55.7472 23.4187 55.7472 24.463C55.7472 25.5074 56.0663 26.368 56.6997 27.0401C57.338 27.7073 58.1551 28.0458 59.1559 28.0458V28.0409Z" fill="white"/>
<path id="Vector_2" d="M72.9595 30.7487C71.4606 30.7487 70.3051 30.2797 69.4928 29.3466C68.6805 28.4134 68.2695 27.0403 68.2695 25.2368V18.4678H71.3398V24.9467C71.3398 25.9766 71.5477 26.7695 71.9683 27.3159C72.389 27.8622 73.0465 28.1378 73.9507 28.1378C74.8065 28.1378 75.5124 27.8332 76.0684 27.2192C76.6245 26.6051 76.9049 25.7542 76.9049 24.6566V18.4678H79.9993V30.4586H77.2675L77.0258 28.4279C76.6535 29.1387 76.1168 29.6995 75.4157 30.1202C74.7146 30.5408 73.8975 30.7487 72.9595 30.7487Z" fill="white"/>
<path id="Vector_3" d="M88.1184 30.7486C87.0547 30.7486 86.1215 30.5745 85.3141 30.2313C84.5066 29.8831 83.8636 29.4045 83.3801 28.7904C82.8966 28.1764 82.6065 27.4705 82.5098 26.663H85.6284C85.7251 27.132 85.9861 27.5285 86.4116 27.8573C86.8371 28.186 87.3931 28.3553 88.0652 28.3553C88.7373 28.3553 89.2401 28.2199 89.5544 27.9443C89.8687 27.6687 90.0282 27.3544 90.0282 27.0015C90.0282 26.4841 89.801 26.136 89.3513 25.9523C88.9017 25.7685 88.2731 25.5848 87.4657 25.4107C86.9483 25.2995 86.4261 25.1593 85.8943 24.9998C85.3624 24.8402 84.8741 24.6323 84.4341 24.3809C83.9893 24.1295 83.6315 23.8103 83.3559 23.4139C83.0803 23.0174 82.9449 22.5291 82.9449 21.9537C82.9449 20.89 83.3704 19.9955 84.2117 19.2703C85.053 18.545 86.2472 18.1824 87.7799 18.1824C89.1966 18.1824 90.3328 18.5112 91.179 19.1736C92.0251 19.836 92.5279 20.7449 92.6875 21.9053H89.7623C89.5834 21.0205 88.9162 20.5757 87.7558 20.5757C87.1756 20.5757 86.7307 20.6869 86.4116 20.9142C86.0974 21.1414 85.9426 21.4218 85.9426 21.7603C85.9426 22.0987 86.1747 22.3985 86.6437 22.6064C87.1127 22.8143 87.7316 23.0077 88.5052 23.1866C89.3417 23.38 90.1153 23.5928 90.8163 23.8297C91.5174 24.0618 92.0783 24.4099 92.4941 24.8692C92.9147 25.3285 93.1226 25.9861 93.1226 26.8419C93.1372 27.5817 92.9438 28.2537 92.5424 28.8484C92.1411 29.4431 91.5609 29.9121 90.8018 30.2506C90.0427 30.589 89.1483 30.7583 88.1184 30.7583V30.7486Z" fill="white"/>
<path id="Vector_4" d="M95.8535 30.4583V13.0522H98.9479V20.3048C99.3492 19.6424 99.8956 19.125 100.582 18.7479C101.269 18.3708 102.052 18.1774 102.942 18.1774C104.426 18.1774 105.572 18.6464 106.384 19.5795C107.196 20.5127 107.603 21.8858 107.603 23.6893V30.4583H104.532V23.9794C104.532 22.9495 104.329 22.1566 103.914 21.6102C103.503 21.0639 102.855 20.7883 101.97 20.7883C101.085 20.7883 100.379 21.0929 99.8037 21.7069C99.2284 22.321 98.9479 23.172 98.9479 24.2695V30.4583H95.8535Z" fill="white"/>
<path id="Vector_5" d="M117.659 30.7484C116.755 30.7484 115.967 30.5792 115.29 30.2408C114.613 29.9023 114.067 29.4285 113.646 28.8144L113.308 30.4583H110.552V13.0522H113.646V20.1839C114.033 19.6521 114.545 19.1831 115.179 18.7818C115.817 18.3804 116.644 18.1774 117.654 18.1774C118.781 18.1774 119.791 18.453 120.676 18.9993C121.561 19.5457 122.262 20.2951 122.78 21.2476C123.297 22.2001 123.553 23.2783 123.553 24.4871C123.553 25.6958 123.297 26.7692 122.78 27.712C122.262 28.6549 121.561 29.3946 120.676 29.9362C119.791 30.4777 118.781 30.7436 117.654 30.7436L117.659 30.7484ZM117.007 28.0408C117.988 28.0408 118.805 27.712 119.448 27.0496C120.091 26.3872 120.415 25.5363 120.415 24.4871C120.415 23.4379 120.091 22.5772 119.448 21.9003C118.805 21.2234 117.988 20.885 117.007 20.885C116.025 20.885 115.189 21.2186 114.55 21.8907C113.912 22.5579 113.593 23.4185 113.593 24.4629C113.593 25.5073 113.912 26.3679 114.55 27.04C115.189 27.7072 116.006 28.0457 117.007 28.0457V28.0408Z" fill="white"/>
<path id="Vector_6" d="M132.067 30.7485C130.907 30.7485 129.862 30.4826 128.934 29.9507C128.006 29.4189 127.276 28.684 126.734 27.7363C126.193 26.7935 125.927 25.7007 125.927 24.4581C125.927 23.2155 126.202 22.1277 126.749 21.1848C127.295 20.242 128.035 19.5022 128.963 18.9704C129.891 18.4385 130.931 18.1726 132.091 18.1726C133.252 18.1726 134.272 18.4385 135.196 18.9704C136.119 19.5022 136.854 20.2372 137.395 21.1848C137.937 22.1325 138.208 23.2204 138.208 24.4581C138.208 25.6959 137.937 26.7935 137.395 27.7363C136.854 28.6791 136.119 29.414 135.186 29.9507C134.253 30.4826 133.213 30.7485 132.067 30.7485ZM132.067 28.0651C132.875 28.0651 133.576 27.7653 134.17 27.1561C134.765 26.5469 135.065 25.6524 135.065 24.4581C135.065 23.2639 134.765 22.3694 134.17 21.765C133.576 21.1607 132.88 20.856 132.091 20.856C131.303 20.856 130.564 21.1558 129.974 21.765C129.384 22.3742 129.089 23.2687 129.089 24.4581C129.089 25.6476 129.384 26.5517 129.974 27.1561C130.564 27.7605 131.26 28.0651 132.067 28.0651Z" fill="white"/>
<path id="Vector_7" d="M145.823 30.4586C144.566 30.4586 143.561 30.154 142.801 29.5399C142.042 28.9259 141.665 27.838 141.665 26.2763V21.0545H139.61V18.4677H141.665L142.028 15.2524H144.76V18.4677H147.999V21.0545H144.76V26.3005C144.76 26.8807 144.885 27.2772 145.132 27.4947C145.379 27.7123 145.814 27.8187 146.423 27.8187H147.922V30.4538H145.819L145.823 30.4586Z" fill="white"/>
</g>
</g>
</g>
<g id="Group 1000001832">
<path id="Ellipse 36" d="M20.7427 55.6733C28.4065 55.6733 34.6193 54.9806 34.6193 54.1261C34.6193 53.2716 28.4065 52.5789 20.7427 52.5789C13.0789 52.5789 6.86621 53.2716 6.86621 54.1261C6.86621 54.9806 13.0789 55.6733 20.7427 55.6733Z" fill="#1A2B3A"/>
<g id="Group 7693">
<path id="Path 8042" d="M20.7423 43.1506H1.74061C0.821954 43.1989 0.0483503 42.4736 0 41.555C0 41.1198 0.145051 40.6363 0.483503 40.3462C1.49886 39.1375 2.46586 37.9287 3.52957 36.7683C4.01307 36.2848 4.25482 35.6079 4.20647 34.931C4.20647 30.1927 4.15812 25.5027 4.20647 20.7644C4.15812 16.2195 5.99543 11.8679 9.28325 8.72517C11.2173 6.83951 13.5864 5.4857 16.1973 4.76045C16.8259 4.66375 17.261 4.13189 17.2127 3.50334C17.2127 1.95613 18.228 0.602323 19.6786 0.167171C20.984 -0.267981 22.4345 0.167171 23.3048 1.23088C23.885 1.90778 24.1751 2.72973 24.1751 3.60004C24.1268 4.18024 24.5619 4.66375 25.0938 4.76045C30.6057 6.45271 34.232 10.079 36.2143 15.4459C36.8429 17.1865 37.1813 19.0238 37.1813 20.9094V34.8827C37.133 35.5596 37.3747 36.2365 37.8099 36.72C38.8253 37.832 39.7439 38.9441 40.7109 40.1045C41.1944 40.6847 41.6779 41.2649 41.2911 42.0868C40.9043 42.9572 40.1307 43.1989 39.2604 43.1989C33.1199 43.1022 26.9311 43.1022 20.7423 43.1506Z" fill="#F5B312"/>
<path id="Path 8043" d="M20.7423 45.5681H23.9817C24.9004 45.5681 25.1421 45.8582 24.9487 46.7769C24.5619 48.8559 22.7246 50.3548 20.5972 50.3064C18.4698 50.2097 16.7292 48.5658 16.5358 46.4868C16.4391 45.8582 16.7292 45.5681 17.3578 45.5681H20.7423Z" fill="#F5B312"/>
<path id="Path 8044" d="M26.4959 29.5158H14.9885C11.9424 29.5158 9.52491 27.0499 9.47656 24.0038V19.604C9.47656 14.1404 13.9248 9.69215 19.4367 9.6438H21.9993C27.4629 9.6438 31.9111 14.092 31.9594 19.604V24.0038C31.9594 27.0499 29.4936 29.4674 26.4959 29.5158Z" fill="#1D2C38"/>
<g id="Group 7692">
<path id="Rectangle 612" d="M14.3123 18.2114H16.4397C17.1166 18.2114 17.6484 18.7433 17.6484 19.4202V23.0465C17.6484 23.7234 17.1166 24.2552 16.4397 24.2552H14.3123C13.6354 24.2552 13.1035 23.7234 13.1035 23.0465V19.4202C13.1035 18.7433 13.6837 18.2114 14.3123 18.2114Z" fill="white"/>
<path id="Rectangle 613" d="M25.0466 18.2114H27.1741C27.851 18.2114 28.3828 18.7433 28.3828 19.4202V23.0465C28.3828 23.7234 27.851 24.2552 27.1741 24.2552H25.0466C24.3697 24.2552 23.8379 23.7234 23.8379 23.0465V19.4202C23.8379 18.7433 24.3697 18.2114 25.0466 18.2114Z" fill="white"/>
</g>
</g>
</g>
</g>
</svg>
