<svg width="186" height="186" viewBox="0 0 186 186" fill="none" xmlns="http://www.w3.org/2000/svg">
<g id="Group 625517" filter="url(#filter0_d_30_2488)">
<g id="Group 625524">
<rect id="Rectangle 3120" x="62" y="24" width="86.6667" height="86.6667" rx="9.33333" fill="#0F0F0F"/>
<path id="Shape" d="M117.999 62.667C117.999 61.9306 117.402 61.3337 116.666 61.3337C115.93 61.3337 115.333 61.9306 115.333 62.667H117.999ZM93.7427 72.5472C93.3084 71.9526 92.4742 71.8226 91.8796 72.2569C91.2849 72.6913 91.155 73.5254 91.5893 74.1201L93.7427 72.5472ZM92.4395 72.0194C91.7138 72.1445 91.227 72.8342 91.3521 73.5599C91.4772 74.2855 92.1669 74.7724 92.8926 74.6473L92.4395 72.0194ZM96.666 72L97.0896 73.2642C97.5262 73.118 97.8564 72.7568 97.9631 72.3089C98.0697 71.8609 97.9378 71.3897 97.614 71.0624L96.666 72ZM95.3327 56L96.507 55.3686C96.2891 54.9632 95.8774 54.6988 95.418 54.6694C94.9586 54.6399 94.5165 54.8495 94.2486 55.2238L95.3327 56ZM103.333 62.6667L103.018 63.9623C103.408 64.0571 103.82 63.9711 104.139 63.7284C104.459 63.4856 104.652 63.1118 104.665 62.7107L103.333 62.6667ZM115.333 58.6667L114.219 59.4005C114.466 59.7747 114.884 60 115.333 60V58.6667ZM119.333 58.6667L120.442 59.4063C120.715 58.9971 120.74 58.4711 120.508 58.0375C120.276 57.604 119.824 57.3333 119.333 57.3333V58.6667ZM115.557 61.9271C115.148 62.5398 115.314 63.3676 115.926 63.7761C116.539 64.1845 117.367 64.019 117.775 63.4063L115.557 61.9271ZM115.333 62.667C115.333 67.0883 114.071 70.7487 111.833 73.2848C109.613 75.8002 106.327 77.3337 101.999 77.3337V80.0003C107.005 80.0003 111.052 78.2004 113.832 75.0492C116.595 71.9186 117.999 67.5791 117.999 62.667H115.333ZM101.999 77.3337C99.5897 77.3337 97.995 76.7128 96.8012 75.868C95.5667 74.9945 94.6802 73.8307 93.7427 72.5472L91.5893 74.1201C92.5141 75.3862 93.6276 76.8891 95.2609 78.0448C96.9349 79.2294 99.0757 80.0003 101.999 80.0003V77.3337ZM92.8926 74.6473C92.9348 74.64 92.9674 74.6322 92.9786 74.6295C92.994 74.6258 93.0063 74.6226 93.0137 74.6206C93.0285 74.6166 93.0404 74.6131 93.0465 74.6114C93.0594 74.6076 93.0709 74.604 93.078 74.6018C93.0932 74.597 93.1106 74.5915 93.1276 74.586C93.1627 74.5747 93.2103 74.5591 93.2671 74.5404C93.3813 74.5028 93.541 74.4499 93.7298 74.3871C94.1078 74.2614 94.6073 74.0947 95.1048 73.9285C95.6024 73.7622 96.0986 73.5961 96.4703 73.4717C96.6562 73.4094 96.811 73.3576 96.9194 73.3213C96.9736 73.3031 97.0161 73.2889 97.0451 73.2792C97.0596 73.2743 97.0708 73.2706 97.0783 73.2681C97.082 73.2668 97.0848 73.2659 97.0868 73.2652C97.0877 73.2649 97.0884 73.2647 97.0889 73.2645C97.0892 73.2644 97.0893 73.2644 97.0895 73.2643C97.0895 73.2643 97.0896 73.2643 97.0896 73.2643C97.0896 73.2643 97.0896 73.2642 96.666 72C96.2424 70.7358 96.2424 70.7358 96.2423 70.7358C96.2423 70.7358 96.2423 70.7358 96.2422 70.7358C96.2421 70.7359 96.2419 70.7359 96.2417 70.736C96.2412 70.7362 96.2405 70.7364 96.2395 70.7367C96.2376 70.7373 96.2348 70.7383 96.2311 70.7395C96.2236 70.7421 96.2125 70.7458 96.198 70.7506C96.169 70.7603 96.1265 70.7746 96.0724 70.7927C95.9642 70.8289 95.8095 70.8807 95.6238 70.9429C95.2522 71.0673 94.7565 71.2332 94.2595 71.3993C93.7623 71.5655 93.2645 71.7316 92.8885 71.8566C92.7003 71.9192 92.5437 71.9711 92.4334 72.0074C92.3779 72.0257 92.336 72.0394 92.3084 72.0483C92.2941 72.0529 92.2868 72.0552 92.2846 72.0559C92.2828 72.0564 92.2874 72.055 92.2952 72.0527C92.2987 72.0517 92.3086 72.0488 92.3217 72.0453C92.3283 72.0435 92.34 72.0404 92.3548 72.0369C92.3654 72.0343 92.3976 72.0266 92.4395 72.0194L92.8926 74.6473ZM97.614 71.0624C93.6267 67.0314 93.3294 61.0885 96.4168 56.7762L94.2486 55.2238C90.4204 60.5708 90.7986 67.9642 95.7181 72.9376L97.614 71.0624ZM94.1583 56.6314C95.9282 59.9234 99.2619 63.0495 103.018 63.9623L103.648 61.371C100.808 60.6809 98.0171 58.1774 96.507 55.3686L94.1583 56.6314ZM104.665 62.7107C104.719 61.0764 105.295 59.7402 106.194 58.8214C107.086 57.91 108.369 57.3333 109.999 57.3333V54.6667C107.702 54.6667 105.716 55.4974 104.288 56.9563C102.867 58.408 102.073 60.4051 102 62.6226L104.665 62.7107ZM109.999 57.3333C111.164 57.3333 112.001 57.5542 112.634 57.8919C113.264 58.228 113.773 58.7236 114.219 59.4005L116.446 57.9329C115.806 56.9623 114.986 56.1246 113.889 55.5393C112.795 54.9554 111.509 54.6667 109.999 54.6667V57.3333ZM115.333 60H119.333V57.3333H115.333V60ZM118.223 57.9271L115.557 61.9271L117.775 63.4063L120.442 59.4063L118.223 57.9271Z" fill="white"/>
</g>
</g>
<defs>
<filter id="filter0_d_30_2488" x="0.666664" y="-1.90735e-06" width="185.333" height="185.333" filterUnits="userSpaceOnUse" color-interpolation-filters="sRGB">
<feFlood flood-opacity="0" result="BackgroundImageFix"/>
<feColorMatrix in="SourceAlpha" type="matrix" values="0 0 0 0 0 0 0 0 0 0 0 0 0 0 0 0 0 0 127 0" result="hardAlpha"/>
<feOffset dx="-12" dy="25.3333"/>
<feGaussianBlur stdDeviation="24.6667"/>
<feComposite in2="hardAlpha" operator="out"/>
<feColorMatrix type="matrix" values="0 0 0 0 0 0 0 0 0 0 0 0 0 0 0 0 0 0 0.07 0"/>
<feBlend mode="normal" in2="BackgroundImageFix" result="effect1_dropShadow_30_2488"/>
<feBlend mode="normal" in="SourceGraphic" in2="effect1_dropShadow_30_2488" result="shape"/>
</filter>
</defs>
</svg>
